<?xml version="1.0" encoding="utf-8"?>
<!-- Generator: Adobe Illustrator 18.0.0, SVG Export Plug-In . SVG Version: 6.00 Build 0)  -->
<!DOCTYPE svg PUBLIC "-//W3C//DTD SVG 1.1//EN" "http://www.w3.org/Graphics/SVG/1.1/DTD/svg11.dtd">
<svg version="1.1" id="Layer_1" xmlns="http://www.w3.org/2000/svg" xmlns:xlink="http://www.w3.org/1999/xlink" x="0px" y="0px"
	 viewBox="0 0 208.7 46.2" enable-background="new 0 0 208.7 46.2" xml:space="preserve">
<g>
	<path fill="#FBCB43" d="M20.5,33.3l-8.2-12.9H5.1v12.9H2V3.1h10.7c1.6,0,3.1,0.2,4.4,0.6s2.4,0.9,3.3,1.7S21.9,7,22.4,8
		s0.7,2.2,0.7,3.6c0,0.9-0.1,1.9-0.4,2.8c-0.3,0.9-0.8,1.8-1.4,2.5s-1.4,1.4-2.4,1.9c-1,0.5-2.2,0.9-3.5,1.1l8.8,13.3H20.5z
		 M20,11.6c0-1-0.2-1.8-0.5-2.6S18.6,7.7,18,7.2c-0.7-0.5-1.5-0.9-2.4-1.2c-0.9-0.3-2-0.4-3.2-0.4H5.1V18h7.5c1.3,0,2.4-0.2,3.3-0.5
		c0.9-0.3,1.7-0.8,2.3-1.3c0.6-0.6,1-1.2,1.3-2C19.8,13.3,20,12.5,20,11.6z"/>
	<path fill="#A4A5A5" d="M31.2,23c0,1.2,0.1,2.3,0.4,3.4s0.8,1.9,1.4,2.7s1.4,1.4,2.4,1.8s2.1,0.7,3.4,0.7c1.7,0,3.1-0.4,4.3-1.1
		s2-1.7,2.4-2.9l2.7,0.5c-0.2,0.6-0.6,1.3-1,1.9c-0.5,0.7-1.1,1.3-1.8,1.9c-0.7,0.6-1.7,1-2.7,1.4c-1.1,0.4-2.4,0.6-3.9,0.6
		c-1.6,0-3.1-0.2-4.4-0.7c-1.3-0.5-2.4-1.2-3.3-2.2c-0.9-1-1.6-2.2-2.1-3.6c-0.5-1.4-0.7-3.1-0.7-5c0-2.1,0.3-3.8,0.9-5.3
		c0.6-1.4,1.4-2.6,2.4-3.5s2.1-1.5,3.3-1.9c1.3-0.4,2.5-0.6,3.8-0.6c1.7,0,3.2,0.3,4.5,0.8c1.3,0.6,2.3,1.3,3.1,2.3s1.4,2.2,1.8,3.6
		c0.4,1.4,0.6,2.9,0.6,4.5V23H31.2z M38.6,13.3c-0.9,0-1.8,0.1-2.7,0.4c-0.9,0.3-1.6,0.7-2.3,1.3c-0.7,0.6-1.2,1.4-1.6,2.3
		c-0.4,1-0.7,2.1-0.7,3.5h14.4c-0.1-1.2-0.3-2.2-0.6-3.1s-0.8-1.7-1.3-2.4c-0.6-0.6-1.3-1.2-2.1-1.5C40.8,13.5,39.8,13.3,38.6,13.3z
		"/>
	<path fill="#A4A5A5" d="M70.4,33.3V20.5c0-1-0.1-2-0.3-2.9c-0.2-0.9-0.6-1.6-1-2.3s-1.1-1.1-1.9-1.5c-0.8-0.4-1.7-0.5-2.8-0.5
		c-1,0-2,0.2-2.8,0.6c-0.9,0.4-1.6,0.9-2.2,1.6c-0.6,0.7-1.1,1.5-1.5,2.4c-0.3,0.9-0.5,1.9-0.5,3v12.2h-2.9V16.4c0-0.5,0-1,0-1.5
		c0-0.5,0-1.1,0-1.5c0-0.5,0-0.9,0-1.2s0-0.5,0-0.6H57c0,0.1,0,0.3,0,0.7c0,0.4,0,0.8,0.1,1.3c0,0.5,0,1,0.1,1.5c0,0.5,0,0.9,0,1.1
		h0.1c0.9-1.7,2-2.9,3.3-3.8c1.3-0.8,2.9-1.2,4.8-1.2c1.5,0,2.7,0.2,3.7,0.7c1,0.5,1.8,1.1,2.5,1.9s1.1,1.7,1.3,2.8s0.4,2.2,0.4,3.4
		v13.5H70.4z"/>
	<path fill="#A4A5A5" d="M85.1,33.6c-1.5,0-2.6-0.4-3.4-1.2c-0.8-0.8-1.2-2.1-1.2-3.8V13.8h-2.9v-2.3h2.9l1-5h1.9v5h5v2.3h-5v14.3
		c0,1.1,0.2,1.9,0.7,2.5c0.5,0.5,1.2,0.8,2.1,0.8c0.4,0,0.8,0,1.2-0.1c0.4-0.1,0.9-0.1,1.3-0.3v2.2c-0.6,0.1-1.1,0.3-1.7,0.3
		C86.4,33.6,85.8,33.6,85.1,33.6z"/>
	<path fill="#FBCB43" d="M112.5,33.3L99.8,17.7L96.6,21v12.3h-3.1V3.1h3.1v14.4l14.1-14.4h3.7l-12.6,12.6l14.4,17.5H112.5z"/>
	<path fill="#A4A5A5" d="M120.1,5.6V2.2h2.9v3.4H120.1z M120.1,33.3V11.5h2.9v21.8H120.1z"/>
	<path fill="#A4A5A5" d="M146.2,33.3V20.5c0-1-0.1-2-0.3-2.9c-0.2-0.9-0.6-1.6-1-2.3s-1.1-1.1-1.9-1.5c-0.8-0.4-1.7-0.5-2.8-0.5
		c-1,0-2,0.2-2.8,0.6c-0.9,0.4-1.6,0.9-2.2,1.6c-0.6,0.7-1.1,1.5-1.5,2.4c-0.3,0.9-0.5,1.9-0.5,3v12.2h-2.9V16.4c0-0.5,0-1,0-1.5
		s0-1.1,0-1.5c0-0.5,0-0.9,0-1.2c0-0.3,0-0.5,0-0.6h2.7c0,0.1,0,0.3,0,0.7c0,0.4,0,0.8,0.1,1.3c0,0.5,0,1,0.1,1.5c0,0.5,0,0.9,0,1.1
		h0.1c0.9-1.7,2-2.9,3.3-3.8c1.3-0.8,2.9-1.2,4.8-1.2c1.5,0,2.7,0.2,3.7,0.7c1,0.5,1.8,1.1,2.5,1.9s1.1,1.7,1.3,2.8s0.4,2.2,0.4,3.4
		v13.5H146.2z"/>
	<path fill="#A4A5A5" d="M175.4,16.1v16.5c0,3.4-0.9,5.9-2.6,7.7s-4.3,2.7-7.6,2.7c-1.4,0-2.7-0.1-3.7-0.4s-2-0.6-2.8-1.1
		c-0.8-0.5-1.4-1.1-1.9-1.7c-0.5-0.7-0.9-1.4-1.1-2.3l2.9-0.5c0.4,1.1,1.1,2,2.2,2.7c1.1,0.7,2.6,1,4.4,1c1.1,0,2.1-0.2,3-0.5
		s1.7-0.8,2.3-1.5c0.6-0.7,1.1-1.5,1.5-2.5c0.3-1,0.5-2.2,0.5-3.5c0-0.4,0-0.8,0-1.2c0-0.4,0-0.8,0-1.2V29h0
		c-0.8,1.5-1.9,2.6-3.2,3.4s-3.1,1.2-5.2,1.2c-1.6,0-2.9-0.3-4.1-0.8c-1.2-0.6-2.1-1.3-2.9-2.3c-0.8-1-1.3-2.2-1.7-3.5
		s-0.6-2.8-0.6-4.4c0-1.6,0.2-3.2,0.6-4.5c0.4-1.4,1-2.6,1.8-3.6s1.8-1.8,3-2.4c1.2-0.6,2.6-0.9,4.2-0.9c1.9,0,3.5,0.4,4.9,1.2
		c1.4,0.8,2.4,1.9,3.1,3.2h0c0-0.4,0-0.8,0-1.3c0-0.5,0-0.9,0.1-1.3s0.1-0.7,0.1-1c0-0.3,0-0.4,0-0.5h2.8c0,0.1,0,0.3,0,0.5
		s0,0.6,0,1s0,0.9,0,1.4C175.4,15,175.4,15.6,175.4,16.1z M172.6,22.2c0-1.6-0.2-3-0.6-4.1c-0.4-1.1-0.9-2.1-1.6-2.8
		c-0.7-0.7-1.5-1.2-2.3-1.5c-0.9-0.3-1.8-0.5-2.8-0.5c-2.4,0-4.2,0.8-5.5,2.4c-1.3,1.6-1.9,3.8-1.9,6.7c0,1.4,0.1,2.6,0.4,3.7
		c0.3,1.1,0.7,2,1.4,2.8c0.6,0.8,1.4,1.4,2.3,1.8c0.9,0.4,2,0.6,3.2,0.6c1,0,1.9-0.2,2.8-0.5c0.9-0.3,1.7-0.8,2.4-1.5
		s1.2-1.6,1.6-2.8C172.4,25.3,172.6,23.9,172.6,22.2z"/>
	<path fill="#A4A5A5" d="M187,4.9v12h-2v-12h-4.6V3.1h11.3v1.7H187z M206.7,16.9V9.2V5.7L206.6,6c0,0-0.1,0.1-0.1,0.2
		c0,0.1,0,0.1-0.1,0.1l-4.4,10.6h-1.7l-3-7.5c0,0-0.1-0.2-0.2-0.6c-0.1-0.4-0.3-0.8-0.5-1.2c-0.2-0.5-0.4-1.1-0.7-1.8
		c0,0.1,0,0.1,0,0.2c0,0.2,0,0.3,0,0.3v10.6h-2V3.1h2.9l4.2,10.7c0,0,0,0,0.1,0.1c0,0.1,0,0.1,0.1,0.1c0,0.1,0.1,0.1,0.1,0.2
		c0.3-0.6,0.5-1.2,0.7-1.7c0.2-0.4,0.3-0.8,0.5-1.2c0.1-0.4,0.2-0.6,0.2-0.6l3.2-7.6h2.8v13.7H206.7z"/>
</g>
<g>
	<path fill="#A4A5A5" d="M6.8,38.5c-0.5,0-1,0.1-1.4,0.2c-0.4,0.1-0.7,0.3-1,0.5c-0.3,0.2-0.5,0.5-0.6,0.7c-0.1,0.3-0.2,0.6-0.2,0.9
		v2.9H2v-4.3c0-0.1,0-0.3,0-0.4c0-0.2,0-0.3,0-0.4c0-0.1,0-0.3,0-0.4s0-0.2,0-0.2h1.5c0,0,0,0.1,0,0.2c0,0.1,0,0.2,0,0.4
		c0,0.1,0,0.3,0,0.4c0,0.1,0,0.2,0,0.3h0c0.2-0.2,0.3-0.4,0.5-0.6s0.5-0.3,0.7-0.4s0.6-0.2,1-0.3c0.4-0.1,0.8-0.1,1.3-0.1
		c0.4,0,0.6,0,0.8,0.1v0.6c-0.1,0-0.3,0-0.5-0.1C7.3,38.5,7.1,38.5,6.8,38.5z"/>
	<path fill="#A4A5A5" d="M11,41c0,0.3,0.1,0.6,0.2,0.9c0.2,0.3,0.4,0.5,0.8,0.7c0.3,0.2,0.8,0.4,1.3,0.5c0.5,0.1,1.2,0.2,1.9,0.2
		c0.9,0,1.7-0.1,2.3-0.3s1.1-0.4,1.3-0.8l1.5,0.1c-0.1,0.2-0.3,0.3-0.6,0.5c-0.3,0.2-0.6,0.3-1,0.5c-0.4,0.1-0.9,0.3-1.5,0.4
		c-0.6,0.1-1.3,0.1-2.2,0.1c-0.9,0-1.7-0.1-2.4-0.2c-0.7-0.1-1.3-0.3-1.8-0.6c-0.5-0.3-0.9-0.6-1.2-0.9c-0.3-0.4-0.4-0.8-0.4-1.3
		c0-0.5,0.2-1,0.5-1.4c0.3-0.4,0.8-0.7,1.3-0.9c0.5-0.2,1.2-0.4,1.8-0.5c0.7-0.1,1.4-0.1,2.1-0.1c1,0,1.8,0.1,2.5,0.2
		s1.3,0.3,1.7,0.6c0.4,0.3,0.8,0.6,1,0.9s0.3,0.7,0.3,1.2V41H11z M15.1,38.4c-0.5,0-1,0-1.5,0.1c-0.5,0.1-0.9,0.2-1.3,0.3
		c-0.4,0.2-0.7,0.4-0.9,0.6c-0.2,0.2-0.4,0.5-0.4,0.9H19c0-0.3-0.2-0.6-0.3-0.8c-0.2-0.2-0.4-0.4-0.7-0.6c-0.3-0.2-0.7-0.3-1.2-0.4
		S15.8,38.4,15.1,38.4z"/>
	<path fill="#A4A5A5" d="M32.7,43.6v-3.3c0-0.3-0.1-0.5-0.2-0.7c-0.1-0.2-0.3-0.4-0.6-0.6c-0.3-0.2-0.6-0.3-1-0.4
		c-0.4-0.1-0.9-0.1-1.6-0.1c-0.6,0-1.1,0.1-1.6,0.2s-0.9,0.2-1.2,0.4c-0.3,0.2-0.6,0.4-0.8,0.6c-0.2,0.2-0.3,0.5-0.3,0.8v3.2h-1.6
		v-4.4c0-0.1,0-0.3,0-0.4c0-0.1,0-0.3,0-0.4c0-0.1,0-0.2,0-0.3s0-0.1,0-0.2h1.5c0,0,0,0.1,0,0.2c0,0.1,0,0.2,0,0.3
		c0,0.1,0,0.3,0,0.4c0,0.1,0,0.2,0,0.3h0c0.5-0.4,1.1-0.8,1.8-1c0.7-0.2,1.6-0.3,2.6-0.3c0.8,0,1.5,0.1,2.1,0.2
		c0.6,0.1,1,0.3,1.4,0.5c0.3,0.2,0.6,0.4,0.7,0.7c0.2,0.3,0.2,0.6,0.2,0.9v3.5H32.7z"/>
	<path fill="#A4A5A5" d="M40.7,43.7c-0.8,0-1.5-0.1-1.9-0.3c-0.4-0.2-0.6-0.5-0.6-1v-3.8h-1.6V38h1.6l0.5-1.3h1.1V38h2.7v0.6h-2.7
		v3.7c0,0.3,0.1,0.5,0.4,0.6c0.3,0.1,0.6,0.2,1.1,0.2c0.2,0,0.4,0,0.7,0c0.2,0,0.5,0,0.7-0.1v0.6c-0.3,0-0.6,0.1-1,0.1
		C41.5,43.7,41.1,43.7,40.7,43.7z"/>
	<path fill="#A4A5A5" d="M53.3,43.6l-4.9-2.8l-1.7,0.7v2.1h-1.6v-8.1h1.6v5.2l6.2-2.8h2l-5.4,2.4l5.7,3.3H53.3z"/>
	<path fill="#A4A5A5" d="M57.4,36.4v-0.9H59v0.9H57.4z M57.4,43.6V38H59v5.7H57.4z"/>
	<path fill="#A4A5A5" d="M71.8,43.6v-3.3c0-0.3-0.1-0.5-0.2-0.7c-0.1-0.2-0.3-0.4-0.6-0.6c-0.3-0.2-0.6-0.3-1-0.4
		c-0.4-0.1-0.9-0.1-1.6-0.1c-0.6,0-1.1,0.1-1.6,0.2S66,38.9,65.6,39c-0.3,0.2-0.6,0.4-0.8,0.6c-0.2,0.2-0.3,0.5-0.3,0.8v3.2h-1.6
		v-4.4c0-0.1,0-0.3,0-0.4c0-0.1,0-0.3,0-0.4c0-0.1,0-0.2,0-0.3s0-0.1,0-0.2h1.5c0,0,0,0.1,0,0.2c0,0.1,0,0.2,0,0.3
		c0,0.1,0,0.3,0,0.4c0,0.1,0,0.2,0,0.3h0c0.5-0.4,1.1-0.8,1.8-1c0.7-0.2,1.6-0.3,2.6-0.3c0.8,0,1.5,0.1,2.1,0.2
		c0.6,0.1,1,0.3,1.4,0.5c0.3,0.2,0.6,0.4,0.7,0.7c0.2,0.3,0.2,0.6,0.2,0.9v3.5H71.8z"/>
	<path fill="#A4A5A5" d="M87.8,39.2v4.3c0,0.9-0.5,1.5-1.5,2c-1,0.5-2.4,0.7-4.2,0.7c-0.8,0-1.5,0-2.1-0.1c-0.6-0.1-1.1-0.2-1.5-0.3
		c-0.4-0.1-0.8-0.3-1-0.4s-0.5-0.4-0.6-0.6l1.6-0.1c0.2,0.3,0.6,0.5,1.2,0.7c0.6,0.2,1.4,0.3,2.4,0.3c0.6,0,1.2,0,1.7-0.1
		s0.9-0.2,1.3-0.4c0.3-0.2,0.6-0.4,0.8-0.6c0.2-0.3,0.3-0.6,0.3-0.9c0-0.1,0-0.2,0-0.3c0-0.1,0-0.2,0-0.3v-0.4h0
		c-0.4,0.4-1,0.7-1.8,0.9c-0.7,0.2-1.7,0.3-2.9,0.3c-0.9,0-1.6-0.1-2.3-0.2s-1.2-0.3-1.6-0.6c-0.4-0.3-0.7-0.6-0.9-0.9
		c-0.2-0.4-0.3-0.7-0.3-1.2c0-0.4,0.1-0.8,0.3-1.2c0.2-0.4,0.5-0.7,1-0.9c0.4-0.3,1-0.5,1.7-0.6c0.7-0.1,1.4-0.2,2.3-0.2
		c1,0,1.9,0.1,2.7,0.3c0.8,0.2,1.3,0.5,1.7,0.8h0c0-0.1,0-0.2,0-0.3c0-0.1,0-0.2,0-0.3s0-0.2,0-0.3c0-0.1,0-0.1,0-0.1h1.5
		c0,0,0,0.1,0,0.1c0,0.1,0,0.2,0,0.3c0,0.1,0,0.2,0,0.4C87.8,38.9,87.8,39,87.8,39.2z M86.3,40.8c0-0.4-0.1-0.8-0.3-1.1
		c-0.2-0.3-0.5-0.5-0.9-0.7c-0.4-0.2-0.8-0.3-1.3-0.4s-1-0.1-1.5-0.1c-1.3,0-2.3,0.2-3,0.6s-1.1,1-1.1,1.7c0,0.4,0.1,0.7,0.2,1
		c0.2,0.3,0.4,0.5,0.7,0.7c0.3,0.2,0.8,0.4,1.3,0.5c0.5,0.1,1.1,0.2,1.8,0.2c0.5,0,1.1,0,1.5-0.1c0.5-0.1,0.9-0.2,1.3-0.4
		c0.4-0.2,0.7-0.4,0.9-0.7C86.2,41.6,86.3,41.2,86.3,40.8z"/>
	<path fill="#A4A5A5" d="M91.5,43.6v-1h1.8v1H91.5z"/>
	<path fill="#A4A5A5" d="M107.1,42c-0.1,0.2-0.3,0.4-0.5,0.7c-0.3,0.2-0.6,0.4-1,0.6c-0.4,0.2-0.9,0.3-1.5,0.4
		c-0.6,0.1-1.3,0.1-2,0.1c-1,0-1.8-0.1-2.5-0.2s-1.3-0.3-1.8-0.6c-0.5-0.3-0.8-0.6-1.1-0.9c-0.2-0.4-0.4-0.7-0.4-1.2
		c0-0.5,0.1-0.9,0.4-1.2s0.6-0.7,1.1-0.9c0.5-0.3,1.1-0.4,1.8-0.6c0.7-0.1,1.5-0.2,2.4-0.2c0.7,0,1.4,0,2,0.1
		c0.6,0.1,1.1,0.2,1.5,0.4s0.8,0.3,1,0.5c0.3,0.2,0.4,0.4,0.5,0.7l-1.6,0.1c-0.1-0.3-0.5-0.6-1.1-0.9c-0.6-0.2-1.4-0.3-2.4-0.3
		c-0.7,0-1.2,0.1-1.8,0.2c-0.5,0.1-0.9,0.3-1.3,0.5c-0.4,0.2-0.6,0.4-0.8,0.7c-0.2,0.3-0.3,0.6-0.3,1c0,0.8,0.4,1.4,1.1,1.8
		s1.7,0.6,3,0.6c1,0,1.8-0.1,2.4-0.3c0.6-0.2,1-0.5,1.1-0.9L107.1,42z"/>
	<path fill="#A4A5A5" d="M121.3,40.8c0,0.4-0.1,0.8-0.4,1.2c-0.3,0.4-0.6,0.7-1.1,0.9c-0.5,0.3-1.1,0.5-1.9,0.6
		c-0.7,0.1-1.6,0.2-2.6,0.2c-0.9,0-1.8-0.1-2.5-0.2c-0.7-0.1-1.3-0.3-1.8-0.6c-0.5-0.3-0.9-0.6-1.1-0.9c-0.3-0.4-0.4-0.8-0.4-1.2
		c0-0.4,0.1-0.8,0.4-1.2c0.2-0.4,0.6-0.7,1.1-0.9s1.1-0.5,1.8-0.6c0.7-0.1,1.6-0.2,2.6-0.2c1.1,0,2,0.1,2.7,0.2
		c0.8,0.1,1.4,0.4,1.8,0.6c0.5,0.3,0.8,0.6,1,0.9C121.2,40,121.3,40.4,121.3,40.8z M119.6,40.8c0-0.8-0.4-1.4-1.1-1.8
		c-0.7-0.4-1.7-0.6-3.1-0.6c-1.4,0-2.5,0.2-3.2,0.6c-0.7,0.4-1.1,1-1.1,1.8c0,0.4,0.1,0.7,0.3,1c0.2,0.3,0.5,0.5,0.9,0.7
		s0.8,0.3,1.3,0.4c0.5,0.1,1.1,0.1,1.7,0.1c1.4,0,2.4-0.2,3.2-0.6S119.6,41.6,119.6,40.8z"/>
	<path fill="#A4A5A5" d="M124.2,43.6v-1h1.8v1H124.2z"/>
	<path fill="#A4A5A5" d="M138.5,43.6v-3.3c0-0.3-0.1-0.5-0.2-0.7c-0.1-0.2-0.3-0.4-0.6-0.6c-0.3-0.2-0.6-0.3-1-0.4
		c-0.4-0.1-0.9-0.1-1.6-0.1c-0.6,0-1.1,0.1-1.6,0.2c-0.5,0.1-0.9,0.2-1.2,0.4c-0.3,0.2-0.6,0.4-0.8,0.6c-0.2,0.2-0.3,0.5-0.3,0.8
		v3.2h-1.6v-4.4c0-0.1,0-0.3,0-0.4c0-0.1,0-0.3,0-0.4c0-0.1,0-0.2,0-0.3s0-0.1,0-0.2h1.5c0,0,0,0.1,0,0.2c0,0.1,0,0.2,0,0.3
		c0,0.1,0,0.3,0,0.4c0,0.1,0,0.2,0,0.3h0c0.5-0.4,1.1-0.8,1.8-1c0.7-0.2,1.6-0.3,2.6-0.3c0.8,0,1.5,0.1,2.1,0.2
		c0.6,0.1,1,0.3,1.4,0.5c0.3,0.2,0.6,0.4,0.7,0.7c0.2,0.3,0.2,0.6,0.2,0.9v3.5H138.5z"/>
	<path fill="#A4A5A5" d="M142.7,43.6V43l7.2-4.4h-6.8V38h8.6v0.6l-7.3,4.4h7.6v0.6H142.7z"/>
</g>
</svg>
